<svg width="250" height="250" viewBox="0 0 250 250" fill="none" xmlns="http://www.w3.org/2000/svg">
<rect width="250" height="250" fill="#080808"/>
<path opacity="0.9" d="M121.6 157.8V187.4H88V64.2H115.6L117.6 70.2H118.6C122.333 64.7333 129.667 62 140.6 62C151.533 62 159.2 65.8 163.6 73.4C168.133 81 170.4 93.4667 170.4 110.8C170.4 128.133 168 141.067 163.2 149.6C158.533 158 149.867 162.2 137.2 162.2C131.333 162.2 126.4 160.733 122.4 157.8H121.6ZM135.6 130C136.133 127.6 136.467 125.267 136.6 123C136.733 120.733 136.8 116.467 136.8 110.2C136.8 103.8 136.333 98.9333 135.4 95.6C134.467 92.1333 132.533 90.4 129.6 90.4C126.8 90.4 124 91.2 121.2 92.8V134.2C123.733 135.4 126.133 136 128.4 136C130.8 136 132.467 135.6 133.4 134.8C134.467 133.867 135.2 132.267 135.6 130Z" fill="white"/>
</svg>
