<svg width="415" height="120" viewBox="0 0 415 120" fill="none" xmlns="http://www.w3.org/2000/svg">
<path opacity="0.9" d="M156.577 25.63C156.577 26.51 156.327 27.29 155.827 27.97C155.347 28.63 154.577 29.25 153.517 29.83C152.457 30.39 151.047 30.95 149.287 31.51C149.287 32.43 149.457 33.16 149.797 33.7C150.137 34.24 150.607 34.51 151.207 34.51C151.767 34.51 152.307 34.31 152.827 33.91C153.367 33.49 153.837 32.9 154.237 32.14L154.777 32.2L155.707 33.37C155.347 34.13 154.857 34.81 154.237 35.41C153.617 36.01 152.937 36.49 152.197 36.85C151.477 37.19 150.747 37.36 150.007 37.36C148.747 37.36 147.737 36.89 146.977 35.95C146.237 35.01 145.867 33.74 145.867 32.14C145.867 30.92 146.067 29.76 146.467 28.66C146.887 27.54 147.447 26.54 148.147 25.66C148.867 24.78 149.677 24.09 150.577 23.59C151.497 23.07 152.447 22.81 153.427 22.81C154.407 22.81 155.177 23.06 155.737 23.56C156.297 24.04 156.577 24.73 156.577 25.63ZM152.407 25.39C151.947 25.39 151.507 25.58 151.087 25.96C150.687 26.32 150.337 26.83 150.037 27.49C149.757 28.13 149.547 28.87 149.407 29.71C150.787 29.25 151.797 28.76 152.437 28.24C153.077 27.7 153.397 27.11 153.397 26.47C153.397 25.75 153.067 25.39 152.407 25.39ZM172.705 33.94C172.805 33.94 172.885 33.92 172.945 33.88C173.025 33.82 173.195 33.69 173.455 33.49C173.715 33.27 174.135 32.91 174.715 32.41L175.225 32.47L175.705 33.52C174.765 34.5 173.975 35.27 173.335 35.83C172.715 36.37 172.185 36.76 171.745 37C171.325 37.24 170.925 37.36 170.545 37.36C169.685 37.36 169.255 36.98 169.255 36.22C169.255 36.12 169.285 35.92 169.345 35.62C169.405 35.32 169.475 34.97 169.555 34.57C169.635 34.15 169.715 33.73 169.795 33.31C169.895 32.87 169.985 32.46 170.065 32.08C170.165 31.7 170.245 31.39 170.305 31.15L170.065 31.12C169.165 32.74 168.325 34.05 167.545 35.05C166.785 36.03 166.005 36.8 165.205 37.36C164.145 37.36 163.315 36.98 162.715 36.22C162.135 35.44 161.845 34.37 161.845 33.01C161.845 31.79 162.045 30.59 162.445 29.41C162.865 28.23 163.425 27.16 164.125 26.2C164.825 25.24 165.595 24.48 166.435 23.92C167.295 23.34 168.165 23.05 169.045 23.05L171.145 23.5L171.865 18.19C171.925 17.73 171.865 17.4 171.685 17.2C171.525 16.98 171.215 16.87 170.755 16.87H169.705L169.945 15.16C170.505 15.16 171.115 15.15 171.775 15.13C172.435 15.09 173.065 15.06 173.665 15.04C174.265 15 174.745 14.97 175.105 14.95C175.485 14.91 175.675 14.89 175.675 14.89L176.035 15.37C176.035 15.37 175.975 15.67 175.855 16.27C175.735 16.87 175.565 17.7 175.345 18.76C175.145 19.8 174.925 20.97 174.685 22.27C174.445 23.55 174.195 24.88 173.935 26.26C173.675 27.64 173.425 28.99 173.185 30.31C172.965 31.61 172.775 32.78 172.615 33.82L172.705 33.94ZM166.135 33.94C166.435 33.94 166.845 33.58 167.365 32.86C167.905 32.14 168.465 31.2 169.045 30.04C169.645 28.86 170.215 27.59 170.755 26.23C170.575 26.11 170.335 25.99 170.035 25.87C169.755 25.73 169.445 25.61 169.105 25.51C168.765 25.41 168.435 25.36 168.115 25.36C167.695 25.36 167.275 25.65 166.855 26.23C166.455 26.81 166.125 27.56 165.865 28.48C165.605 29.4 165.475 30.35 165.475 31.33C165.475 32.07 165.535 32.69 165.655 33.19C165.775 33.69 165.935 33.94 166.135 33.94ZM185.43 33.94C185.57 33.94 185.75 33.85 185.97 33.67C186.19 33.49 186.68 33.07 187.44 32.41L187.95 32.47L188.43 33.52C187.59 34.44 186.85 35.18 186.21 35.74C185.59 36.3 185.04 36.71 184.56 36.97C184.1 37.23 183.68 37.36 183.3 37.36C182.38 37.36 181.92 36.87 181.92 35.89C182.22 34.13 182.47 32.56 182.67 31.18C182.89 29.8 183.06 28.69 183.18 27.85C183.3 26.99 183.36 26.47 183.36 26.29C183.36 25.89 183.27 25.6 183.09 25.42C182.91 25.24 182.62 25.15 182.22 25.15H181.17L181.44 23.41C181.9 23.41 182.45 23.4 183.09 23.38C183.75 23.36 184.43 23.33 185.13 23.29C185.83 23.23 186.5 23.19 187.14 23.17L187.5 23.62C187.22 24.58 186.94 25.67 186.66 26.89C186.38 28.09 186.12 29.3 185.88 30.52C185.66 31.72 185.48 32.82 185.34 33.82L185.43 33.94ZM185.46 20.41C184.86 20.41 184.41 20.24 184.11 19.9C183.81 19.56 183.66 19.12 183.66 18.58C183.66 17.82 183.9 17.19 184.38 16.69C184.88 16.17 185.51 15.91 186.27 15.91C186.87 15.91 187.32 16.09 187.62 16.45C187.94 16.79 188.1 17.22 188.1 17.74C188.1 18.5 187.85 19.14 187.35 19.66C186.85 20.16 186.22 20.41 185.46 20.41ZM200.347 25.42C199.827 25.42 199.337 25.69 198.877 26.23C198.437 26.77 198.077 27.48 197.797 28.36C197.537 29.22 197.407 30.17 197.407 31.21C197.407 32.23 197.567 33.04 197.887 33.64C198.207 34.22 198.637 34.51 199.177 34.51C199.697 34.51 200.207 34.29 200.707 33.85C201.227 33.39 201.657 32.79 201.997 32.05L202.507 32.11L203.467 33.31C203.107 34.07 202.627 34.76 202.027 35.38C201.427 35.98 200.777 36.46 200.077 36.82C199.377 37.18 198.677 37.36 197.977 37.36C196.717 37.36 195.717 36.9 194.977 35.98C194.257 35.04 193.897 33.79 193.897 32.23C193.897 30.99 194.097 29.81 194.497 28.69C194.897 27.55 195.447 26.54 196.147 25.66C196.867 24.78 197.677 24.09 198.577 23.59C199.477 23.07 200.417 22.81 201.397 22.81C201.957 22.81 202.487 22.87 202.987 22.99C203.507 23.11 203.937 23.28 204.277 23.5L204.427 23.92L203.167 26.77L202.357 26.83C201.797 25.89 201.127 25.42 200.347 25.42ZM213.583 33.94C213.723 33.94 213.903 33.85 214.123 33.67C214.343 33.49 214.833 33.07 215.593 32.41L216.103 32.47L216.583 33.52C215.743 34.44 215.003 35.18 214.363 35.74C213.743 36.3 213.193 36.71 212.713 36.97C212.253 37.23 211.833 37.36 211.453 37.36C210.533 37.36 210.073 36.87 210.073 35.89C210.373 34.13 210.623 32.56 210.823 31.18C211.043 29.8 211.213 28.69 211.333 27.85C211.453 26.99 211.513 26.47 211.513 26.29C211.513 25.89 211.423 25.6 211.243 25.42C211.063 25.24 210.773 25.15 210.373 25.15H209.323L209.593 23.41C210.053 23.41 210.603 23.4 211.243 23.38C211.903 23.36 212.583 23.33 213.283 23.29C213.983 23.23 214.653 23.19 215.293 23.17L215.653 23.62C215.373 24.58 215.093 25.67 214.813 26.89C214.533 28.09 214.273 29.3 214.033 30.52C213.813 31.72 213.633 32.82 213.493 33.82L213.583 33.94ZM213.613 20.41C213.013 20.41 212.563 20.24 212.263 19.9C211.963 19.56 211.813 19.12 211.813 18.58C211.813 17.82 212.053 17.19 212.533 16.69C213.033 16.17 213.663 15.91 214.423 15.91C215.023 15.91 215.473 16.09 215.773 16.45C216.093 16.79 216.253 17.22 216.253 17.74C216.253 18.5 216.003 19.14 215.503 19.66C215.003 20.16 214.373 20.41 213.613 20.41ZM226.37 37.36C225.07 37.36 224.03 36.89 223.25 35.95C222.49 34.99 222.11 33.68 222.11 32.02C222.11 30.72 222.29 29.52 222.65 28.42C223.03 27.3 223.55 26.32 224.21 25.48C224.89 24.64 225.68 23.99 226.58 23.53C227.48 23.05 228.46 22.81 229.52 22.81C230.88 22.81 231.93 23.25 232.67 24.13C233.43 24.99 233.81 26.22 233.81 27.82C233.81 29.16 233.62 30.41 233.24 31.57C232.88 32.73 232.36 33.75 231.68 34.63C231.02 35.49 230.24 36.16 229.34 36.64C228.44 37.12 227.45 37.36 226.37 37.36ZM227.57 35.02C228.11 35.02 228.57 34.8 228.95 34.36C229.33 33.92 229.62 33.27 229.82 32.41C230.04 31.53 230.15 30.46 230.15 29.2C230.15 27.96 229.99 27.02 229.67 26.38C229.37 25.74 228.91 25.42 228.29 25.42C227.77 25.42 227.31 25.63 226.91 26.05C226.53 26.47 226.23 27.08 226.01 27.88C225.81 28.66 225.71 29.62 225.71 30.76C225.71 32.14 225.87 33.2 226.19 33.94C226.53 34.66 226.99 35.02 227.57 35.02ZM248.822 37.33C247.902 37.33 247.442 36.9 247.442 36.04C247.442 35.72 247.512 35.28 247.652 34.72C247.792 34.16 247.962 33.55 248.162 32.89C248.382 32.21 248.592 31.53 248.792 30.85C248.992 30.17 249.152 29.55 249.272 28.99C249.412 28.41 249.482 27.96 249.482 27.64C249.482 27.3 249.412 27.04 249.272 26.86C249.132 26.66 248.952 26.56 248.732 26.56C248.392 26.56 247.952 26.91 247.412 27.61C246.892 28.31 246.322 29.28 245.702 30.52C245.102 31.74 244.512 33.15 243.932 34.75L244.352 29.47L244.952 29.62C245.792 27.86 246.632 26.4 247.472 25.24C248.312 24.06 249.092 23.25 249.812 22.81C250.792 22.81 251.572 23.09 252.152 23.65C252.752 24.19 253.052 24.91 253.052 25.81C253.052 26.25 252.962 26.82 252.782 27.52C252.602 28.2 252.382 28.93 252.122 29.71C251.882 30.49 251.642 31.24 251.402 31.96C251.182 32.68 251.012 33.29 250.892 33.79L250.982 33.88C251.082 33.88 251.182 33.85 251.282 33.79C251.402 33.71 251.592 33.56 251.852 33.34C252.112 33.12 252.482 32.79 252.962 32.35L253.502 32.44L253.952 33.49C253.092 34.41 252.342 35.15 251.702 35.71C251.082 36.27 250.542 36.68 250.082 36.94C249.642 37.2 249.222 37.33 248.822 37.33ZM240.902 37.24L240.512 36.79C240.692 35.75 240.872 34.68 241.052 33.58C241.232 32.46 241.392 31.4 241.532 30.4C241.692 29.4 241.822 28.54 241.922 27.82C242.022 27.1 242.092 26.62 242.132 26.38C242.152 25.96 242.072 25.65 241.892 25.45C241.732 25.25 241.432 25.15 240.992 25.15H239.972L240.242 23.41C240.842 23.41 241.662 23.39 242.702 23.35C243.762 23.29 244.822 23.23 245.882 23.17L246.212 23.65C246.012 24.23 245.812 24.91 245.612 25.69C245.412 26.47 245.232 27.24 245.072 28C244.932 28.76 244.812 29.44 244.712 30.04L244.292 33.19L243.932 36.16C243.912 36.32 243.732 36.49 243.392 36.67C243.072 36.83 242.682 36.96 242.222 37.06C241.782 37.18 241.342 37.24 240.902 37.24ZM270.259 25.63C270.259 26.51 270.009 27.29 269.509 27.97C269.029 28.63 268.259 29.25 267.199 29.83C266.139 30.39 264.729 30.95 262.969 31.51C262.969 32.43 263.139 33.16 263.479 33.7C263.819 34.24 264.289 34.51 264.889 34.51C265.449 34.51 265.989 34.31 266.509 33.91C267.049 33.49 267.519 32.9 267.919 32.14L268.459 32.2L269.389 33.37C269.029 34.13 268.539 34.81 267.919 35.41C267.299 36.01 266.619 36.49 265.879 36.85C265.159 37.19 264.429 37.36 263.689 37.36C262.429 37.36 261.419 36.89 260.659 35.95C259.919 35.01 259.549 33.74 259.549 32.14C259.549 30.92 259.749 29.76 260.149 28.66C260.569 27.54 261.129 26.54 261.829 25.66C262.549 24.78 263.359 24.09 264.259 23.59C265.179 23.07 266.129 22.81 267.109 22.81C268.089 22.81 268.859 23.06 269.419 23.56C269.979 24.04 270.259 24.73 270.259 25.63ZM266.089 25.39C265.629 25.39 265.189 25.58 264.769 25.96C264.369 26.32 264.019 26.83 263.719 27.49C263.439 28.13 263.229 28.87 263.089 29.71C264.469 29.25 265.479 28.76 266.119 28.24C266.759 27.7 267.079 27.11 267.079 26.47C267.079 25.75 266.749 25.39 266.089 25.39ZM276.878 32.32C276.918 33.16 277.178 33.82 277.658 34.3C278.158 34.78 278.798 35.02 279.578 35.02C280.078 35.02 280.488 34.89 280.808 34.63C281.128 34.35 281.288 34.01 281.288 33.61C281.288 33.17 281.098 32.79 280.718 32.47C280.338 32.13 279.888 31.79 279.368 31.45C278.928 31.13 278.488 30.8 278.048 30.46C277.608 30.1 277.238 29.69 276.938 29.23C276.658 28.77 276.518 28.22 276.518 27.58C276.518 26.7 276.768 25.9 277.268 25.18C277.768 24.46 278.438 23.89 279.278 23.47C280.138 23.03 281.088 22.81 282.128 22.81C282.888 22.81 283.598 22.92 284.258 23.14C284.938 23.34 285.468 23.64 285.848 24.04C285.628 24.6 285.388 25.15 285.128 25.69C284.888 26.23 284.658 26.68 284.438 27.04H283.868C283.648 26.48 283.338 26.05 282.938 25.75C282.538 25.43 282.098 25.27 281.618 25.27C281.238 25.27 280.908 25.39 280.628 25.63C280.348 25.87 280.208 26.17 280.208 26.53C280.208 26.79 280.288 27.04 280.448 27.28C280.628 27.52 280.848 27.74 281.108 27.94C281.448 28.22 281.838 28.51 282.278 28.81C282.718 29.09 283.138 29.41 283.538 29.77C283.938 30.11 284.268 30.5 284.528 30.94C284.788 31.38 284.918 31.89 284.918 32.47C284.918 33.35 284.648 34.17 284.108 34.93C283.568 35.67 282.848 36.26 281.948 36.7C281.068 37.14 280.078 37.36 278.978 37.36C277.938 37.36 277.038 37.2 276.278 36.88C275.538 36.54 275.078 36.1 274.898 35.56C274.958 35.22 275.068 34.85 275.228 34.45C275.388 34.03 275.558 33.63 275.738 33.25C275.938 32.85 276.128 32.53 276.308 32.29L276.878 32.32Z" fill="black"/>
<g opacity="0.9">
<path d="M12.3727 108.32V119.22H0V73.8533H10.1633L10.8998 76.0627H11.268C12.6427 74.0497 15.3431 73.0432 19.3692 73.0432C23.3952 73.0432 26.2183 74.4425 27.8386 77.2411C29.5079 80.0396 30.3426 84.6303 30.3426 91.0131C30.3426 97.3958 29.4588 102.158 27.6913 105.301C25.9728 108.394 22.7815 109.94 18.1172 109.94C15.9569 109.94 14.1402 109.4 12.6673 108.32H12.3727ZM17.528 98.0832C17.7244 97.1994 17.8471 96.3402 17.8962 95.5055C17.9453 94.6709 17.9699 93.0997 17.9699 90.7921C17.9699 88.4354 17.798 86.6433 17.4543 85.4159C17.1107 84.1393 16.3987 83.5011 15.3186 83.5011C14.2875 83.5011 13.2565 83.7956 12.2254 84.3848V99.6298C13.1583 100.072 14.042 100.293 14.8767 100.293C15.7605 100.293 16.3742 100.145 16.7179 99.8507C17.1107 99.507 17.3807 98.9178 17.528 98.0832Z" fill="black"/>
<path d="M53.4545 83.5011C52.1779 83.5011 51.3433 83.9429 50.9505 84.8267C50.5577 85.6614 50.3613 86.9625 50.3613 88.73H56.7686V86.9625C56.7686 84.6549 55.6639 83.5011 53.4545 83.5011ZM53.7491 72.9695C58.8062 72.9695 62.4149 74.197 64.5752 76.6519C66.7846 79.0577 67.8893 82.5191 67.8893 87.0361C67.8893 87.6253 67.7175 90.2766 67.3738 94.99H50.5823C50.5823 98.6723 52.2761 100.514 55.6639 100.514C57.2841 100.514 60.451 99.9489 65.1644 98.8196L66.1954 107.952C62.0712 109.228 57.947 109.867 53.8227 109.867C48.7656 109.867 44.8869 108.222 42.1865 104.932C39.4861 101.594 38.1359 97.0767 38.1359 91.3813C38.1359 79.1068 43.3403 72.9695 53.7491 72.9695Z" fill="black"/>
<path d="M87.9495 89.3192V109.13H75.7241V73.8533H86.4766L87.213 75.9891H87.5076C88.6369 74.7125 89.7661 73.9024 90.8954 73.5587C92.0737 73.1659 93.964 72.9695 96.5662 72.9695L96.0507 84.7531H92.6629C90.7481 84.7531 89.4715 85.0476 88.8333 85.6368C88.2441 86.226 87.9495 87.4534 87.9495 89.3192Z" fill="black"/>
<path d="M129.816 83.0592L129.448 98.3041C129.448 99.237 129.669 99.8752 130.111 100.219C130.602 100.514 131.412 100.661 132.541 100.661L131.436 109.572C128.589 109.768 127.017 109.867 126.723 109.867C123.09 109.867 120.782 108.615 119.8 106.111H119.432C117.615 108.615 114.817 109.867 111.036 109.867C108.139 109.867 105.905 108.934 104.334 107.068C102.812 105.202 102.051 102.649 102.051 99.4088C102.051 95.3337 103.303 92.5105 105.807 90.9394C108.36 89.3683 112.362 88.3372 117.812 87.8462V86.0787C117.812 84.704 117.124 84.0166 115.75 84.0166C113.393 84.0166 109.71 84.7285 104.702 86.1524L102.861 75.3999C109.146 73.7797 114.375 72.9695 118.548 72.9695C122.721 72.9695 125.643 73.7797 127.312 75.3999C128.981 77.0201 129.816 79.5732 129.816 83.0592ZM115.602 101.25C117.419 101.25 118.327 100.293 118.327 98.3778V94.7691C116.511 95.0145 115.209 95.4073 114.424 95.9474C113.687 96.4384 113.319 97.2976 113.319 98.525C113.319 100.342 114.08 101.25 115.602 101.25Z" fill="black"/>
<path d="M137.81 84.3112C137.81 80.727 138.89 77.953 141.051 75.9891C143.26 73.976 146.28 72.9695 150.109 72.9695C153.939 72.9695 157.818 73.4605 161.746 74.4425L160.494 84.6794C155.486 83.5502 152.122 82.9855 150.404 82.9855C149.373 82.9855 148.857 83.4029 148.857 84.2375C148.857 84.7776 149.422 85.2686 150.551 85.7105C154.479 87.1343 157.425 88.7545 159.389 90.5712C161.402 92.3878 162.408 95.1127 162.408 98.746C162.408 102.379 161.475 105.153 159.61 107.068C157.744 108.934 154.872 109.867 150.993 109.867C147.163 109.867 143.334 109.376 139.504 108.394L140.314 98.4514C145.224 99.777 148.391 100.44 149.815 100.44C151.288 100.44 152.024 100.096 152.024 99.4088C152.024 98.7214 151.484 98.1814 150.404 97.7886C146.034 96.1192 142.843 94.3517 140.83 92.486C138.817 90.5712 137.81 87.8462 137.81 84.3112Z" fill="black"/>
<path d="M268.136 91.3813C268.136 84.9003 269.364 80.2115 271.818 77.3147C274.322 74.4179 278.201 72.9695 283.455 72.9695C288.757 72.9695 292.611 74.3934 295.017 77.2411C297.423 80.0887 298.626 84.7776 298.626 91.3076C298.626 97.7886 297.448 102.502 295.091 105.448C292.734 108.394 288.88 109.867 283.528 109.867C278.177 109.867 274.273 108.394 271.818 105.448C269.364 102.502 268.136 97.8131 268.136 91.3813ZM285.811 84.3848C285.517 83.4029 284.731 82.9119 283.455 82.9119C282.178 82.9119 281.368 83.4029 281.024 84.3848C280.681 85.3668 280.509 87.4289 280.509 90.5712V92.3387C280.509 95.8247 280.681 98.0832 281.024 99.1142C281.368 100.145 282.154 100.661 283.381 100.661C284.658 100.661 285.468 100.145 285.811 99.1142C286.155 98.0832 286.327 95.972 286.327 92.7806V90.6448C286.327 87.4534 286.155 85.3668 285.811 84.3848Z" fill="black"/>
<path d="M306.875 101.029V61.9225H319.027V97.1258C319.027 97.9604 319.199 98.5496 319.542 98.8933C319.935 99.237 320.598 99.4088 321.531 99.4088L320.573 109.867H316.523C313.282 109.867 310.852 109.204 309.232 107.878C307.661 106.503 306.875 104.22 306.875 101.029Z" fill="black"/>
<path d="M358.384 76.4309C361.084 74.1233 364.054 72.9695 367.295 72.9695C370.535 72.9695 372.794 73.7306 374.07 75.2526C375.396 76.7255 376.059 78.9595 376.059 81.9545V109.13H363.539V86.1524C363.539 84.9249 362.999 84.3112 361.919 84.3112C360.544 84.3112 359.39 84.6549 358.457 85.3422V109.13H345.937V86.1524C345.937 84.9249 345.397 84.3112 344.317 84.3112C342.942 84.3112 341.788 84.6549 340.856 85.3422V109.13H328.483V73.8533H339.751L340.487 76.4309H340.782C343.482 74.1233 346.674 72.9695 350.356 72.9695C354.088 72.9695 356.518 74.3443 357.647 77.0938L358.384 76.4309Z" fill="black"/>
<path d="M384.311 91.3813C384.311 84.9003 385.539 80.2115 387.994 77.3147C390.498 74.4179 394.376 72.9695 399.63 72.9695C404.933 72.9695 408.787 74.3934 411.193 77.2411C413.598 80.0887 414.801 84.7776 414.801 91.3076C414.801 97.7886 413.623 102.502 411.266 105.448C408.909 108.394 405.055 109.867 399.704 109.867C394.352 109.867 390.449 108.394 387.994 105.448C385.539 102.502 384.311 97.8131 384.311 91.3813ZM401.987 84.3848C401.692 83.4029 400.907 82.9119 399.63 82.9119C398.353 82.9119 397.543 83.4029 397.2 84.3848C396.856 85.3668 396.684 87.4289 396.684 90.5712V92.3387C396.684 95.8247 396.856 98.0832 397.2 99.1142C397.543 100.145 398.329 100.661 399.556 100.661C400.833 100.661 401.643 100.145 401.987 99.1142C402.33 98.0832 402.502 95.972 402.502 92.7806V90.6448C402.502 87.4534 402.33 85.3668 401.987 84.3848Z" fill="black"/>
</g>
<g opacity="0.9">
<path d="M203.234 104.544C203.564 104.544 203.964 104.354 204.435 103.976C204.953 103.598 206.295 102.486 208.46 100.641L209.449 100.712L210.508 102.77C207.354 105.892 204.976 108.044 203.376 109.226C201.822 110.409 200.551 111 199.562 111C197.726 111 196.808 110.22 196.808 108.659C196.808 108.044 197.161 106.057 197.867 102.699C198.621 99.2932 199.209 96.7626 199.633 95.1071L199.068 95.0361C196.902 99.104 194.807 102.415 192.782 104.969C190.805 107.523 188.781 109.534 186.709 111C184.59 111 182.943 110.125 181.766 108.375C180.589 106.625 180 104.189 180 101.067C180 97.2829 180.8 93.5698 182.401 89.9277C184.049 86.2383 186.144 83.2347 188.686 80.917C191.276 78.552 193.889 77.3695 196.525 77.3695L201.54 78.2918L203.376 64.9531L203.446 64.1727C203.446 63.3686 203.211 62.7773 202.74 62.3989C202.269 62.0205 201.54 61.8313 200.551 61.8313H197.867L198.362 58.4967C200.339 58.4967 202.669 58.4257 205.353 58.2838C208.037 58.1419 209.802 58.0473 210.65 58L211.427 58.9933C211.097 60.5069 210.391 63.9362 209.308 69.2811C208.272 74.6261 207.119 80.6568 205.847 87.3735C204.623 94.0428 203.682 99.6716 203.023 104.26L203.234 104.544ZM188.404 104.189C189.581 104.189 191.394 102.226 193.842 98.2999C196.337 94.3739 198.715 89.6439 200.975 84.1098C199.986 83.4949 198.879 82.9746 197.655 82.5489C196.431 82.1232 195.348 81.9103 194.407 81.9103C193.136 81.9103 191.888 82.6671 190.664 84.1807C189.44 85.647 188.451 87.5863 187.698 89.9987C186.944 92.3637 186.568 94.8233 186.568 97.3775C186.568 99.2695 186.733 100.878 187.062 102.202C187.439 103.527 187.886 104.189 188.404 104.189Z" fill="black"/>
<path d="M235.62 82.9746C235.62 86.0018 234.326 88.5797 231.736 90.7082C229.147 92.8367 224.792 94.8942 218.671 96.8809C218.577 99.5297 218.954 101.658 219.801 103.266C220.649 104.827 221.849 105.608 223.403 105.608C224.768 105.608 226.11 105.087 227.428 104.047C228.794 103.006 229.947 101.564 230.889 99.7189L231.948 99.8608L233.572 102.06C232.254 104.662 230.442 106.814 228.135 108.517C225.828 110.172 223.544 111 221.284 111C218.554 111 216.388 109.936 214.787 107.807C213.186 105.631 212.386 102.699 212.386 99.0094C212.386 95.3672 213.186 91.8434 214.787 88.4378C216.435 85.0321 218.554 82.2651 221.143 80.1365C223.733 78.008 226.416 76.9438 229.194 76.9438C231.218 76.9438 232.796 77.4877 233.926 78.5756C235.056 79.6162 235.62 81.0826 235.62 82.9746ZM226.863 81.9813C225.121 81.9813 223.474 83.0928 221.92 85.3159C220.366 87.4917 219.354 90.1642 218.883 93.3333C222.603 92.1508 225.286 90.8974 226.934 89.573C228.629 88.2485 229.476 86.6876 229.476 84.8902C229.476 82.9509 228.605 81.9813 226.863 81.9813Z" fill="black"/>
<path d="M244.737 104.544C245.067 104.544 245.514 104.331 246.079 103.905C246.691 103.432 247.986 102.344 249.963 100.641L250.952 100.712L252.011 102.77C249.281 105.608 247.044 107.689 245.302 109.013C243.56 110.338 242.171 111 241.136 111C239.347 111 238.452 110.125 238.452 108.375C238.452 108.091 239.299 102.533 240.994 91.7015C241.465 88.5324 242.242 83.4003 243.325 76.3052C244.408 69.2102 244.949 65.3079 244.949 64.5984C244.949 63.6051 244.737 62.8956 244.314 62.4699C243.89 62.0442 243.16 61.8313 242.124 61.8313H239.441L239.935 58.4967C241.912 58.4967 244.243 58.4257 246.927 58.2838C249.61 58.1419 251.376 58.0473 252.223 58L253 58.9933C252.67 60.4596 251.964 63.7943 250.881 68.9973C249.846 74.1531 248.692 80.0892 247.421 86.8059C246.15 93.4752 245.185 99.2932 244.525 104.26L244.737 104.544Z" fill="black"/>
</g>
</svg>
