<svg width="300" height="46" viewBox="0 0 300 46" fill="none" xmlns="http://www.w3.org/2000/svg">
<g opacity="0.9">
<path d="M8.829 37.292V45.0699H0V12.6969H7.25239L7.77793 14.2736H8.0407C9.0217 12.8371 10.9487 12.1189 13.8216 12.1189C16.6945 12.1189 18.7091 13.1174 19.8653 15.1144C21.0565 17.1114 21.6521 20.3873 21.6521 24.9419C21.6521 29.4966 21.0214 32.895 19.7601 35.1373C18.5339 37.3446 16.2566 38.4482 12.9282 38.4482C11.3866 38.4482 10.0903 38.0628 9.03921 37.292H8.829ZM12.5078 29.9871C12.6479 29.3564 12.7355 28.7433 12.7705 28.1477C12.8056 27.5521 12.8231 26.4309 12.8231 24.7843C12.8231 23.1026 12.7004 21.8237 12.4552 20.9479C12.2099 20.0369 11.7019 19.5815 10.9311 19.5815C10.1954 19.5815 9.45964 19.7917 8.72389 20.2121V31.0907C9.38957 31.406 10.0202 31.5637 10.6158 31.5637C11.2465 31.5637 11.6844 31.4586 11.9297 31.2484C12.2099 31.0031 12.4026 30.5827 12.5078 29.9871Z" fill="#F4F4F4"/>
<path d="M38.1444 19.5815C37.2335 19.5815 36.6379 19.8968 36.3576 20.5274C36.0773 21.123 35.9372 22.0515 35.9372 23.3128H40.5094V22.0515C40.5094 20.4048 39.7211 19.5815 38.1444 19.5815ZM38.3547 12.0663C41.9633 12.0663 44.5385 12.9422 46.08 14.694C47.6566 16.4107 48.445 18.8807 48.445 22.104C48.445 22.5245 48.3223 24.4164 48.0771 27.7798H36.0949C36.0949 30.4075 37.3036 31.7213 39.7211 31.7213C40.8772 31.7213 43.137 31.3184 46.5005 30.5126L47.2362 37.0292C44.2932 37.9402 41.3502 38.3956 38.4072 38.3956C34.7985 38.3956 32.0307 37.2219 30.1038 34.8746C28.1768 32.4921 27.2133 29.2688 27.2133 25.2047C27.2133 16.4458 30.9271 12.0663 38.3547 12.0663Z" fill="#F4F4F4"/>
<path d="M62.7596 23.7332V37.8701H54.0357V12.6969H61.7086L62.2341 14.221H62.4443C63.2501 13.3101 64.056 12.732 64.8618 12.4867C65.7026 12.2064 67.0515 12.0663 68.9084 12.0663L68.5405 20.4749H66.1231C64.7567 20.4749 63.8457 20.6851 63.3903 21.1055C62.9699 21.5259 62.7596 22.4018 62.7596 23.7332Z" fill="#F4F4F4"/>
<path d="M92.6351 19.2661L92.3723 30.1447C92.3723 30.8104 92.53 31.2659 92.8453 31.5111C93.1957 31.7213 93.7738 31.8264 94.5796 31.8264L93.7913 38.1854C91.7592 38.3256 90.6381 38.3956 90.4279 38.3956C87.8352 38.3956 86.1885 37.5022 85.4878 35.7154H85.2251C83.9287 37.5022 81.9317 38.3956 79.234 38.3956C77.1668 38.3956 75.5727 37.73 74.4516 36.3986C73.3655 35.0673 72.8224 33.2454 72.8224 30.933C72.8224 28.0251 73.7158 26.0105 75.5026 24.8894C77.3245 23.7682 80.1799 23.0325 84.0689 22.6821V21.4208C84.0689 20.4398 83.5784 19.9493 82.5974 19.9493C80.9157 19.9493 78.288 20.4574 74.7143 21.4734L73.4005 13.8006C77.8851 12.6444 81.6164 12.0663 84.5944 12.0663C87.5725 12.0663 89.6571 12.6444 90.8483 13.8006C92.0395 14.9567 92.6351 16.7786 92.6351 19.2661ZM82.4923 32.2469C83.7886 32.2469 84.4368 31.5637 84.4368 30.1973V27.6222C83.1404 27.7973 82.212 28.0776 81.6514 28.463C81.1259 28.8134 80.8631 29.4265 80.8631 30.3024C80.8631 31.5987 81.4062 32.2469 82.4923 32.2469Z" fill="#F4F4F4"/>
<path d="M98.3396 20.1596C98.3396 17.6019 99.1104 15.6224 100.652 14.221C102.229 12.7845 104.383 12.0663 107.116 12.0663C109.849 12.0663 112.617 12.4167 115.42 13.1174L114.526 20.4223C110.952 19.6165 108.553 19.2136 107.326 19.2136C106.591 19.2136 106.223 19.5114 106.223 20.107C106.223 20.4924 106.626 20.8427 107.431 21.1581C110.234 22.1741 112.336 23.3303 113.738 24.6266C115.174 25.9229 115.893 27.8674 115.893 30.4601C115.893 33.0527 115.227 35.0322 113.895 36.3986C112.564 37.73 110.515 38.3956 107.747 38.3956C105.014 38.3956 102.281 38.0453 99.5484 37.3446L100.126 30.2498C103.63 31.1958 105.89 31.6688 106.906 31.6688C107.957 31.6688 108.482 31.4235 108.482 30.933C108.482 30.4425 108.097 30.0571 107.326 29.7769C104.208 28.5856 101.931 27.3244 100.494 25.993C99.0579 24.6266 98.3396 22.6821 98.3396 20.1596Z" fill="#F4F4F4"/>
<path d="M147.061 33.0961C147.296 33.0961 147.582 32.9616 147.919 32.6925C148.289 32.4235 149.247 31.633 150.794 30.3213L151.501 30.3718L152.257 31.8349C150.004 34.0547 148.305 35.5851 147.162 36.4259C146.052 37.2668 145.144 37.6872 144.437 37.6872C143.126 37.6872 142.47 37.1323 142.47 36.0223C142.47 35.5851 142.722 34.1724 143.227 31.7844C143.765 29.3627 144.185 27.5633 144.488 26.3861L144.084 26.3356C142.537 29.2282 141.04 31.5826 139.594 33.3988C138.181 35.2151 136.735 36.6446 135.255 37.6872C133.742 37.6872 132.564 37.065 131.724 35.8205C130.883 34.5761 130.462 32.8439 130.462 30.624C130.462 27.9333 131.034 25.293 132.178 22.7031C133.355 20.0797 134.852 17.9439 136.668 16.2958C138.518 14.6141 140.384 13.7732 142.268 13.7732L145.85 14.4291L147.162 4.94424L147.212 4.38928C147.212 3.81749 147.044 3.39706 146.708 3.12799C146.371 2.85891 145.85 2.72438 145.144 2.72438H143.227L143.58 0.353158C144.992 0.353158 146.657 0.302708 148.574 0.201806C150.492 0.100903 151.753 0.0336339 152.358 0L152.913 0.70632C152.678 1.78262 152.173 4.2211 151.4 8.02178C150.66 11.8225 149.836 16.1108 148.928 20.8869C148.053 25.6293 147.38 29.6318 146.91 32.8943L147.061 33.0961ZM136.466 32.8439C137.307 32.8439 138.602 31.4481 140.351 28.6564C142.133 25.8648 143.832 22.5013 145.446 18.5661C144.74 18.1289 143.95 17.7589 143.075 17.4562C142.201 17.1535 141.427 17.0021 140.754 17.0021C139.846 17.0021 138.955 17.5403 138.08 18.6166C137.206 19.6592 136.5 21.0382 135.962 22.7536C135.423 24.4353 135.154 26.1843 135.154 28.0005C135.154 29.3459 135.272 30.4895 135.507 31.4312C135.777 32.373 136.096 32.8439 136.466 32.8439Z" fill="#F4F4F4"/>
<path d="M170.197 17.7589C170.197 19.9115 169.272 21.7446 167.422 23.2581C165.572 24.7717 162.461 26.2347 158.089 27.6474C158.022 29.5309 158.291 31.0444 158.896 32.188C159.501 33.2979 160.359 33.8529 161.469 33.8529C162.444 33.8529 163.403 33.4829 164.345 32.743C165.32 32.003 166.144 30.9772 166.817 29.6654L167.574 29.7663L168.734 31.3303C167.792 33.1802 166.497 34.7106 164.849 35.9214C163.201 37.0986 161.57 37.6872 159.956 37.6872C158.005 37.6872 156.458 36.9304 155.314 35.4169C154.17 33.8697 153.599 31.7844 153.599 29.1609C153.599 26.5711 154.17 24.0653 155.314 21.6437C156.491 19.222 158.005 17.2544 159.855 15.7408C161.705 14.2273 163.622 13.4705 165.606 13.4705C167.052 13.4705 168.179 13.8573 168.986 14.6309C169.794 15.3709 170.197 16.4135 170.197 17.7589ZM163.941 17.0526C162.697 17.0526 161.52 17.843 160.41 19.4238C159.3 20.971 158.577 22.8713 158.24 25.1248C160.897 24.284 162.814 23.3926 163.992 22.4509C165.202 21.5091 165.808 20.3992 165.808 19.1211C165.808 17.7421 165.186 17.0526 163.941 17.0526Z" fill="#F4F4F4"/>
<path d="M176.71 33.0961C176.946 33.0961 177.265 32.9448 177.669 32.6421C178.106 32.3057 179.031 31.5321 180.444 30.3213L181.15 30.3718L181.907 31.8349C179.956 33.8529 178.358 35.3328 177.114 36.2746C175.869 37.2163 174.877 37.6872 174.137 37.6872C172.859 37.6872 172.22 37.065 172.22 35.8205C172.22 35.6187 172.825 31.6667 174.036 23.9644C174.373 21.7109 174.928 18.0616 175.701 13.0165C176.475 7.97133 176.861 5.1965 176.861 4.69198C176.861 3.98566 176.71 3.48115 176.407 3.17844C176.105 2.87573 175.583 2.72438 174.843 2.72438H172.926L173.279 0.353158C174.692 0.353158 176.357 0.302708 178.274 0.201806C180.191 0.100903 181.453 0.0336339 182.058 0L182.613 0.70632C182.378 1.74898 181.873 4.1202 181.099 7.81997C180.359 11.4861 179.535 15.7072 178.627 20.4833C177.719 25.2257 177.03 29.3627 176.559 32.8943L176.71 33.0961Z" fill="#F4F4F4"/>
<path d="M195.342 23.8909C195.342 19.2661 196.218 15.9202 197.969 13.8531C199.756 11.786 202.524 10.7525 206.273 10.7525C210.057 10.7525 212.807 11.7685 214.524 13.8006C216.24 15.8326 217.099 19.1786 217.099 23.8383C217.099 28.463 216.258 31.8264 214.576 33.9286C212.895 36.0307 210.144 37.0818 206.325 37.0818C202.506 37.0818 199.721 36.0307 197.969 33.9286C196.218 31.8264 195.342 28.4805 195.342 23.8909ZM207.954 18.8983C207.744 18.1976 207.184 17.8472 206.273 17.8472C205.362 17.8472 204.784 18.1976 204.539 18.8983C204.293 19.599 204.171 21.0705 204.171 23.3128V24.5741C204.171 27.0616 204.293 28.6732 204.539 29.409C204.784 30.1447 205.344 30.5126 206.22 30.5126C207.131 30.5126 207.709 30.1447 207.954 29.409C208.2 28.6732 208.322 27.1667 208.322 24.8894V23.3653C208.322 21.088 208.2 19.599 207.954 18.8983Z" fill="#F4F4F4"/>
<path d="M222.985 30.7754V2.86942H231.657V27.99C231.657 28.5856 231.779 29.0061 232.024 29.2513C232.305 29.4966 232.778 29.6192 233.443 29.6192L232.76 37.0818H229.87C227.557 37.0818 225.823 36.6088 224.667 35.6629C223.546 34.6819 222.985 33.0527 222.985 30.7754Z" fill="#F4F4F4"/>
<path d="M259.741 13.2225C261.668 11.5758 263.788 10.7525 266.1 10.7525C268.412 10.7525 270.024 11.2955 270.935 12.3816C271.881 13.4327 272.354 15.0268 272.354 17.164V36.5563H263.42V20.1596C263.42 19.2837 263.034 18.8457 262.264 18.8457C261.283 18.8457 260.459 19.091 259.794 19.5815V36.5563H250.86V20.1596C250.86 19.2837 250.474 18.8457 249.703 18.8457C248.722 18.8457 247.899 19.091 247.233 19.5815V36.5563H238.404V11.3831H246.445L246.971 13.2225H247.181C249.108 11.5758 251.385 10.7525 254.013 10.7525C256.675 10.7525 258.41 11.7335 259.216 13.6955L259.741 13.2225Z" fill="#F4F4F4"/>
<path d="M278.243 23.8909C278.243 19.2661 279.119 15.9202 280.871 13.8531C282.657 11.786 285.425 10.7525 289.174 10.7525C292.958 10.7525 295.708 11.7685 297.425 13.8006C299.142 15.8326 300 19.1786 300 23.8383C300 28.463 299.159 31.8264 297.477 33.9286C295.796 36.0307 293.045 37.0818 289.227 37.0818C285.408 37.0818 282.622 36.0307 280.871 33.9286C279.119 31.8264 278.243 28.4805 278.243 23.8909ZM290.856 18.8983C290.645 18.1976 290.085 17.8472 289.174 17.8472C288.263 17.8472 287.685 18.1976 287.44 18.8983C287.194 19.599 287.072 21.0705 287.072 23.3128V24.5741C287.072 27.0616 287.194 28.6732 287.44 29.409C287.685 30.1447 288.246 30.5126 289.121 30.5126C290.032 30.5126 290.61 30.1447 290.856 29.409C291.101 28.6732 291.224 27.1667 291.224 24.8894V23.3653C291.224 21.088 291.101 19.599 290.856 18.8983Z" fill="#F4F4F4"/>
</g>
</svg>
