<?xml version="1.0" standalone="no"?>
<!DOCTYPE svg PUBLIC "-//W3C//DTD SVG 20010904//EN"
 "http://www.w3.org/TR/2001/REC-SVG-20010904/DTD/svg10.dtd">
<svg version="1.0" xmlns="http://www.w3.org/2000/svg"
 width="250.000000pt" height="250.000000pt" viewBox="0 0 250.000000 250.000000"
 preserveAspectRatio="xMidYMid meet">
<metadata>
Created by potrace 1.11, written by Peter Selinger 2001-2013
</metadata>
<g transform="translate(0.000000,250.000000) scale(0.100000,-0.100000)"
fill="#000000" stroke="none">
<path d="M1305 1871 c-40 -10 -88 -36 -104 -55 -20 -23 -29 -20 -36 14 l-7 30
-139 0 -139 0 0 -615 0 -615 170 0 170 0 0 145 0 146 33 -17 c47 -25 162 -30
231 -10 64 19 127 70 156 126 45 88 55 154 55 375 0 189 -2 217 -22 281 -45
142 -114 196 -258 200 -44 2 -93 0 -110 -5z m24 -288 c14 -12 25 -39 32 -78
14 -75 6 -290 -11 -328 -16 -33 -49 -43 -99 -31 l-36 9 0 210 0 210 35 12 c47
16 54 16 79 -4z"/>
</g>
</svg>
