<svg width="300" height="46" viewBox="0 0 300 46" fill="none" xmlns="http://www.w3.org/2000/svg">
<g opacity="0.9">
<path d="M8.829 38.1719V45.9498H0V13.5768H7.25239L7.77793 15.1534H8.0407C9.0217 13.717 10.9487 12.9987 13.8216 12.9987C16.6945 12.9987 18.7091 13.9973 19.8653 15.9943C21.0565 17.9913 21.6521 21.2672 21.6521 25.8218C21.6521 30.3765 21.0214 33.7749 19.7601 36.0172C18.5339 38.2245 16.2566 39.3281 12.9282 39.3281C11.3866 39.3281 10.0903 38.9427 9.03921 38.1719H8.829ZM12.5078 30.867C12.6479 30.2363 12.7355 29.6232 12.7705 29.0276C12.8056 28.432 12.8231 27.3108 12.8231 25.6641C12.8231 23.9824 12.7004 22.7036 12.4552 21.8277C12.2099 20.9168 11.7019 20.4613 10.9311 20.4613C10.1954 20.4613 9.45964 20.6716 8.72389 21.092V31.9706C9.38957 32.2859 10.0202 32.4436 10.6158 32.4436C11.2465 32.4436 11.6844 32.3385 11.9297 32.1282C12.2099 31.883 12.4026 31.4626 12.5078 30.867Z" fill="#080808"/>
<path d="M38.1444 20.4613C37.2335 20.4613 36.6379 20.7767 36.3576 21.4073C36.0773 22.0029 35.9372 22.9314 35.9372 24.1926H40.5094V22.9314C40.5094 21.2847 39.7211 20.4613 38.1444 20.4613ZM38.3547 12.9462C41.9633 12.9462 44.5385 13.8221 46.08 15.5739C47.6566 17.2906 48.445 19.7606 48.445 22.9839C48.445 23.4043 48.3223 25.2963 48.0771 28.6597H36.0949C36.0949 31.2874 37.3036 32.6012 39.7211 32.6012C40.8772 32.6012 43.137 32.1983 46.5005 31.3925L47.2362 37.9091C44.2932 38.8201 41.3502 39.2755 38.4072 39.2755C34.7985 39.2755 32.0307 38.1018 30.1038 35.7544C28.1768 33.372 27.2133 30.1487 27.2133 26.0846C27.2133 17.3256 30.9271 12.9462 38.3547 12.9462Z" fill="#080808"/>
<path d="M62.7596 24.6131V38.75H54.0357V13.5768H61.7086L62.2341 15.1009H62.4443C63.2501 14.19 64.056 13.6119 64.8618 13.3666C65.7026 13.0863 67.0515 12.9462 68.9084 12.9462L68.5405 21.3548H66.1231C64.7567 21.3548 63.8457 21.565 63.3903 21.9854C62.9699 22.4058 62.7596 23.2817 62.7596 24.6131Z" fill="#080808"/>
<path d="M92.6351 20.146L92.3723 31.0246C92.3723 31.6903 92.53 32.1458 92.8453 32.391C93.1957 32.6012 93.7738 32.7063 94.5796 32.7063L93.7913 39.0653C91.7592 39.2055 90.6381 39.2755 90.4279 39.2755C87.8352 39.2755 86.1885 38.3821 85.4878 36.5953H85.2251C83.9287 38.3821 81.9317 39.2755 79.234 39.2755C77.1668 39.2755 75.5727 38.6098 74.4516 37.2785C73.3655 35.9471 72.8224 34.1253 72.8224 31.8129C72.8224 28.905 73.7158 26.8904 75.5026 25.7693C77.3245 24.6481 80.1799 23.9124 84.0689 23.562V22.3007C84.0689 21.3197 83.5784 20.8292 82.5974 20.8292C80.9157 20.8292 78.288 21.3372 74.7143 22.3533L73.4005 14.6805C77.8851 13.5243 81.6164 12.9462 84.5944 12.9462C87.5724 12.9462 89.6571 13.5243 90.8483 14.6805C92.0395 15.8366 92.6351 17.6585 92.6351 20.146ZM82.4923 33.1268C83.7886 33.1268 84.4368 32.4436 84.4368 31.0772V28.502C83.1404 28.6772 82.212 28.9575 81.6514 29.3429C81.1259 29.6933 80.8631 30.3064 80.8631 31.1823C80.8631 32.4786 81.4062 33.1268 82.4923 33.1268Z" fill="#080808"/>
<path d="M98.3396 21.0394C98.3396 18.4818 99.1104 16.5023 100.652 15.1009C102.229 13.6644 104.383 12.9462 107.116 12.9462C109.849 12.9462 112.617 13.2965 115.42 13.9973L114.526 21.3022C110.952 20.4964 108.553 20.0935 107.326 20.0935C106.591 20.0935 106.223 20.3913 106.223 20.9869C106.223 21.3723 106.626 21.7226 107.431 22.038C110.234 23.054 112.336 24.2102 113.738 25.5065C115.174 26.8028 115.893 28.7473 115.893 31.3399C115.893 33.9326 115.227 35.9121 113.895 37.2785C112.564 38.6098 110.515 39.2755 107.747 39.2755C105.014 39.2755 102.281 38.9252 99.5484 38.2245L100.126 31.1297C103.63 32.0757 105.89 32.5487 106.906 32.5487C107.957 32.5487 108.482 32.3034 108.482 31.8129C108.482 31.3224 108.097 30.937 107.326 30.6567C104.208 29.4655 101.931 28.2042 100.494 26.8729C99.0579 25.5065 98.3396 23.562 98.3396 21.0394Z" fill="#080808"/>
<path d="M147.061 33.976C147.296 33.976 147.582 33.8415 147.919 33.5724C148.288 33.3033 149.247 32.5129 150.794 31.2012L151.501 31.2516L152.257 32.7147C150.004 34.9346 148.305 36.465 147.162 37.3058C146.052 38.1467 145.144 38.5671 144.437 38.5671C143.126 38.5671 142.47 38.0121 142.47 36.9022C142.47 36.465 142.722 35.0523 143.227 32.6643C143.765 30.2426 144.185 28.4432 144.488 27.266L144.084 27.2155C142.537 30.1081 141.04 32.4625 139.594 34.2787C138.181 36.095 136.735 37.5244 135.255 38.5671C133.742 38.5671 132.564 37.9449 131.724 36.7004C130.883 35.4559 130.462 33.7238 130.462 31.5039C130.462 28.8132 131.034 26.1729 132.178 23.583C133.355 20.9596 134.852 18.8238 136.668 17.1757C138.518 15.494 140.384 14.6531 142.268 14.6531L145.85 15.309L147.162 5.82412L147.212 5.26916C147.212 4.69737 147.044 4.27695 146.708 4.00787C146.371 3.7388 145.85 3.60426 145.144 3.60426H143.227L143.58 1.23304C144.992 1.23304 146.657 1.18259 148.574 1.08169C150.492 0.980785 151.753 0.913517 152.358 0.879883L152.913 1.5862C152.678 2.6625 152.173 5.10099 151.4 8.90166C150.66 12.7023 149.836 16.9907 148.928 21.7668C148.053 26.5092 147.38 30.5117 146.91 33.7742L147.061 33.976ZM136.466 33.7238C137.307 33.7238 138.602 32.3279 140.351 29.5363C142.133 26.7447 143.832 23.3812 145.446 19.446C144.74 19.0088 143.95 18.6388 143.075 18.3361C142.201 18.0334 141.427 17.882 140.754 17.882C139.846 17.882 138.955 18.4202 138.08 19.4965C137.206 20.5391 136.5 21.9181 135.962 23.6335C135.423 25.3152 135.154 27.0642 135.154 28.8804C135.154 30.2258 135.272 31.3694 135.507 32.3111C135.777 33.2529 136.096 33.7238 136.466 33.7238Z" fill="#080808"/>
<path d="M170.197 18.6388C170.197 20.7914 169.272 22.6245 167.422 24.138C165.572 25.6515 162.461 27.1146 158.089 28.5273C158.022 30.4108 158.291 31.9243 158.896 33.0679C159.501 34.1778 160.359 34.7328 161.469 34.7328C162.444 34.7328 163.403 34.3628 164.345 33.6229C165.32 32.8829 166.144 31.8571 166.817 30.5453L167.574 30.6462L168.734 32.2102C167.792 34.0601 166.497 35.5905 164.849 36.8013C163.201 37.9785 161.57 38.5671 159.956 38.5671C158.005 38.5671 156.458 37.8103 155.314 36.2968C154.17 34.7496 153.599 32.6643 153.599 30.0408C153.599 27.451 154.17 24.9452 155.314 22.5235C156.491 20.1019 158.005 18.1343 159.855 16.6207C161.705 15.1072 163.622 14.3504 165.606 14.3504C167.052 14.3504 168.179 14.7372 168.986 15.5108C169.794 16.2508 170.197 17.2934 170.197 18.6388ZM163.941 17.9325C162.697 17.9325 161.52 18.7229 160.41 20.3037C159.3 21.8509 158.577 23.7512 158.24 26.0047C160.897 25.1638 162.814 24.2725 163.992 23.3308C165.202 22.389 165.808 21.2791 165.808 20.001C165.808 18.622 165.186 17.9325 163.941 17.9325Z" fill="#080808"/>
<path d="M176.71 33.976C176.946 33.976 177.265 33.8247 177.669 33.522C178.106 33.1856 179.031 32.412 180.444 31.2012L181.15 31.2516L181.907 32.7147C179.956 34.7328 178.358 36.2127 177.114 37.1545C175.869 38.0962 174.877 38.5671 174.137 38.5671C172.859 38.5671 172.22 37.9449 172.22 36.7004C172.22 36.4986 172.825 32.5466 174.036 24.8443C174.373 22.5908 174.928 18.9415 175.701 13.8964C176.475 8.85121 176.861 6.07638 176.861 5.57187C176.861 4.86554 176.71 4.36103 176.407 4.05832C176.105 3.75561 175.583 3.60426 174.843 3.60426H172.926L173.279 1.23304C174.692 1.23304 176.357 1.18259 178.274 1.08169C180.191 0.980785 181.453 0.913517 182.058 0.879883L182.613 1.5862C182.378 2.62886 181.873 5.00008 181.099 8.69985C180.359 12.366 179.535 16.5871 178.627 21.3632C177.719 26.1056 177.03 30.2426 176.559 33.7742L176.71 33.976Z" fill="#080808"/>
<path d="M195.342 24.7707C195.342 20.146 196.218 16.8001 197.969 14.733C199.756 12.6659 202.524 11.6323 206.273 11.6323C210.057 11.6323 212.807 12.6484 214.524 14.6805C216.24 16.7125 217.099 20.0584 217.099 24.7182C217.099 29.3429 216.258 32.7063 214.576 34.8085C212.895 36.9106 210.144 37.9617 206.325 37.9617C202.506 37.9617 199.721 36.9106 197.969 34.8085C196.218 32.7063 195.342 29.3604 195.342 24.7707ZM207.954 19.7781C207.744 19.0774 207.184 18.7271 206.273 18.7271C205.362 18.7271 204.784 19.0774 204.538 19.7781C204.293 20.4789 204.171 21.9504 204.171 24.1926V25.4539C204.171 27.9415 204.293 29.5531 204.538 30.2889C204.784 31.0246 205.344 31.3925 206.22 31.3925C207.131 31.3925 207.709 31.0246 207.954 30.2889C208.2 29.5531 208.322 28.0466 208.322 25.7693V24.2452C208.322 21.9679 208.2 20.4789 207.954 19.7781Z" fill="#080808"/>
<path d="M222.985 31.6553V3.74931H231.657V28.8699C231.657 29.4655 231.779 29.886 232.024 30.1312C232.305 30.3765 232.778 30.4991 233.443 30.4991L232.76 37.9617H229.87C227.557 37.9617 225.823 37.4887 224.667 36.5427C223.546 35.5617 222.985 33.9326 222.985 31.6553Z" fill="#080808"/>
<path d="M259.741 14.1024C261.668 12.4557 263.788 11.6323 266.1 11.6323C268.412 11.6323 270.024 12.1754 270.935 13.2615C271.881 14.3126 272.354 15.9067 272.354 18.0439V37.4361H263.42V21.0394C263.42 20.1635 263.034 19.7256 262.264 19.7256C261.283 19.7256 260.459 19.9708 259.794 20.4613V37.4361H250.86V21.0394C250.86 20.1635 250.474 19.7256 249.703 19.7256C248.722 19.7256 247.899 19.9708 247.233 20.4613V37.4361H238.404V12.263H246.445L246.971 14.1024H247.181C249.108 12.4557 251.385 11.6323 254.013 11.6323C256.675 11.6323 258.41 12.6133 259.216 14.5753L259.741 14.1024Z" fill="#080808"/>
<path d="M278.243 24.7707C278.243 20.146 279.119 16.8001 280.871 14.733C282.657 12.6659 285.425 11.6323 289.174 11.6323C292.958 11.6323 295.708 12.6484 297.425 14.6805C299.142 16.7125 300 20.0584 300 24.7182C300 29.3429 299.159 32.7063 297.477 34.8085C295.796 36.9106 293.045 37.9617 289.227 37.9617C285.408 37.9617 282.622 36.9106 280.871 34.8085C279.119 32.7063 278.243 29.3604 278.243 24.7707ZM290.856 19.7781C290.645 19.0774 290.085 18.7271 289.174 18.7271C288.263 18.7271 287.685 19.0774 287.44 19.7781C287.194 20.4789 287.072 21.9504 287.072 24.1926V25.4539C287.072 27.9415 287.194 29.5531 287.44 30.2889C287.685 31.0246 288.246 31.3925 289.121 31.3925C290.032 31.3925 290.61 31.0246 290.856 30.2889C291.101 29.5531 291.224 28.0466 291.224 25.7693V24.2452C291.224 21.9679 291.101 20.4789 290.856 19.7781Z" fill="#080808"/>
</g>
</svg>
